<svg width="16" height="16" viewBox="0 0 16 16" fill="none" xmlns="http://www.w3.org/2000/svg">
<path d="M14.6667 8.0013H10.6667L9.33337 10.0013H6.66671L5.33337 8.0013H1.33337M14.6667 8.0013V12.0013C14.6667 12.3549 14.5262 12.6941 14.2762 12.9441C14.0261 13.1942 13.687 13.3346 13.3334 13.3346H2.66671C2.31309 13.3346 1.97395 13.1942 1.7239 12.9441C1.47385 12.6941 1.33337 12.3549 1.33337 12.0013V8.0013M14.6667 8.0013L12.3667 3.40797C12.2563 3.18583 12.0862 2.99888 11.8753 2.86816C11.6645 2.73743 11.4214 2.6681 11.1734 2.66797H4.82671C4.57865 2.6681 4.33555 2.73743 4.12474 2.86816C3.91392 2.99888 3.74376 3.18583 3.63337 3.40797L1.33337 8.0013" stroke="#404040" stroke-linecap="round" stroke-linejoin="round"/>
</svg>
