<svg width="15" height="12" viewBox="0 0 15 12" fill="none" xmlns="http://www.w3.org/2000/svg">
<path d="M13.8333 5.83333H0.5M13.8333 5.83333V9.83333C13.8333 10.187 13.6929 10.5261 13.4428 10.7761C13.1928 11.0262 12.8536 11.1667 12.5 11.1667H1.83333C1.47971 11.1667 1.14057 11.0262 0.890524 10.7761C0.640476 10.5261 0.5 10.187 0.5 9.83333V5.83333M13.8333 5.83333L11.5333 1.24C11.4229 1.01786 11.2528 0.830914 11.042 0.700186C10.8312 0.569459 10.5881 0.500132 10.34 0.5H3.99333C3.74528 0.500132 3.50218 0.569459 3.29136 0.700186C3.08055 0.830914 2.91038 1.01786 2.8 1.24L0.5 5.83333M3.16667 8.5H3.17333M5.83333 8.5H5.84" stroke="#003D3E" stroke-linecap="round" stroke-linejoin="round"/>
</svg>
